<svg viewBox="0 0 240 210" xmlns="http://www.w3.org/2000/svg" role="img" aria-label="Ilustração do sensor HC-SR04">
  <rect x="16" y="14" width="208" height="150" rx="16" fill="#0e5c8a"/>
  <rect x="16" y="14" width="208" height="150" rx="16" fill="none" stroke="#083a58" stroke-width="2"/>
  <rect x="26" y="24" width="60" height="14" rx="3" fill="#ffffff" opacity="0.12"/>
  <text x="30" y="150" font-family="Consolas, monospace" font-size="11" fill="#ffffff" opacity="0.55">HC-SR04</text>
  <circle cx="120" cy="88" r="46" fill="#ffffff"/>
  <g transform="translate(120,88)">
    
    <rect x="-10" y="6" width="20" height="12" rx="3" fill="#0070c9"/>
    <circle cx="-4" cy="12" r="2.4" fill="#ffffff"/>
    <circle cx="4" cy="12" r="2.4" fill="#ffffff"/>
    <path d="M -6 0 A 10 10 0 0 1 6 0" fill="none" stroke="#ff8a00" stroke-width="2.4" stroke-linecap="round"/>
    <path d="M -13 -6 A 19 19 0 0 1 13 -6" fill="none" stroke="#ff8a00" stroke-width="2.4" stroke-linecap="round" opacity="0.6"/>
    
  </g>
  <g fill="#e8b923">
    <rect x="45" y="164" width="10" height="18" rx="2"/>
    <rect x="85" y="164" width="10" height="18" rx="2"/>
    <rect x="145" y="164" width="10" height="18" rx="2"/>
    <rect x="185" y="164" width="10" height="18" rx="2"/>
  </g>
  <g font-family="Montserrat, sans-serif" font-size="9" fill="#0e5c8a" text-anchor="middle">
    <text x="50" y="198">VCC</text>
    <text x="90" y="198">GND</text>
    <text x="150" y="198">SIG</text>
    <text x="190" y="198">—</text>
  </g>
</svg>