<svg viewBox="0 0 240 210" xmlns="http://www.w3.org/2000/svg" role="img" aria-label="Ilustração do sensor Sensor Capacitivo de Umidade do Solo">
  <rect x="16" y="14" width="208" height="150" rx="16" fill="#0e5c8a"/>
  <rect x="16" y="14" width="208" height="150" rx="16" fill="none" stroke="#083a58" stroke-width="2"/>
  <rect x="26" y="24" width="60" height="14" rx="3" fill="#ffffff" opacity="0.12"/>
  <text x="30" y="150" font-family="Consolas, monospace" font-size="11" fill="#ffffff" opacity="0.55">SOIL-MOISTURE</text>
  <circle cx="120" cy="88" r="46" fill="#ffffff"/>
  <g transform="translate(120,88)">
    
    <g transform="translate(8,-4) scale(0.85)">
      <path d="M0,-16 C9,-3 9,9 0,15 C-9,9 -9,-3 0,-16 Z" fill="#0070c9"/>
    </g>
    
    <path d="M -18 16 Q -18 2 -6 2 Q -8 -8 2 -10" fill="none" stroke="#2e8b3d" stroke-width="3.4" stroke-linecap="round"/>
    <path d="M -14 16 L -14 4" stroke="#2e8b3d" stroke-width="3.4" stroke-linecap="round"/>
    
  </g>
  <g fill="#e8b923">
    <rect x="45" y="164" width="10" height="18" rx="2"/>
    <rect x="85" y="164" width="10" height="18" rx="2"/>
    <rect x="145" y="164" width="10" height="18" rx="2"/>
    <rect x="185" y="164" width="10" height="18" rx="2"/>
  </g>
  <g font-family="Montserrat, sans-serif" font-size="9" fill="#0e5c8a" text-anchor="middle">
    <text x="50" y="198">VCC</text>
    <text x="90" y="198">GND</text>
    <text x="150" y="198">SIG</text>
    <text x="190" y="198">—</text>
  </g>
</svg>